<svg id="visual" viewBox="0 0 1920 1080" width="1920" height="1080" xmlns="http://www.w3.org/2000/svg" xmlns:xlink="http://www.w3.org/1999/xlink" version="1.1"><rect x="0" y="0" width="1920" height="1080" fill="#001122"></rect><defs><linearGradient id="grad1_0" x1="43.8%" y1="0%" x2="100%" y2="100%"><stop offset="14.444444444444446%" stop-color="#000913" stop-opacity="1"></stop><stop offset="85.55555555555554%" stop-color="#000913" stop-opacity="1"></stop></linearGradient></defs><defs><linearGradient id="grad1_1" x1="43.8%" y1="0%" x2="100%" y2="100%"><stop offset="14.444444444444446%" stop-color="#000913" stop-opacity="1"></stop><stop offset="85.55555555555554%" stop-color="#000c18" stop-opacity="1"></stop></linearGradient></defs><defs><linearGradient id="grad1_2" x1="43.8%" y1="0%" x2="100%" y2="100%"><stop offset="14.444444444444446%" stop-color="#000f1d" stop-opacity="1"></stop><stop offset="85.55555555555554%" stop-color="#000c18" stop-opacity="1"></stop></linearGradient></defs><defs><linearGradient id="grad1_3" x1="43.8%" y1="0%" x2="100%" y2="100%"><stop offset="14.444444444444446%" stop-color="#000f1d" stop-opacity="1"></stop><stop offset="85.55555555555554%" stop-color="#001122" stop-opacity="1"></stop></linearGradient></defs><defs><linearGradient id="grad2_0" x1="0%" y1="0%" x2="56.3%" y2="100%"><stop offset="14.444444444444446%" stop-color="#000913" stop-opacity="1"></stop><stop offset="85.55555555555554%" stop-color="#000913" stop-opacity="1"></stop></linearGradient></defs><defs><linearGradient id="grad2_1" x1="0%" y1="0%" x2="56.3%" y2="100%"><stop offset="14.444444444444446%" stop-color="#000c18" stop-opacity="1"></stop><stop offset="85.55555555555554%" stop-color="#000913" stop-opacity="1"></stop></linearGradient></defs><defs><linearGradient id="grad2_2" x1="0%" y1="0%" x2="56.3%" y2="100%"><stop offset="14.444444444444446%" stop-color="#000c18" stop-opacity="1"></stop><stop offset="85.55555555555554%" stop-color="#000f1d" stop-opacity="1"></stop></linearGradient></defs><defs><linearGradient id="grad2_3" x1="0%" y1="0%" x2="56.3%" y2="100%"><stop offset="14.444444444444446%" stop-color="#001122" stop-opacity="1"></stop><stop offset="85.55555555555554%" stop-color="#000f1d" stop-opacity="1"></stop></linearGradient></defs><g transform="translate(1920, 0)"><path d="M0 702C-76.3 689.1 -152.6 676.1 -203.3 625.8C-254.1 575.5 -279.4 487.8 -317.4 436.9C-355.4 385.9 -406.2 371.8 -474.1 344.4C-541.9 317.1 -626.8 276.5 -667.6 216.9C-708.5 157.3 -705.2 78.7 -702 0L0 0Z" fill="#001020"></path><path d="M0 526.5C-57.2 516.8 -114.4 507.1 -152.5 469.3C-190.6 431.6 -209.5 365.8 -238.1 327.7C-266.6 289.5 -304.7 278.8 -355.6 258.3C-406.4 237.8 -470.1 207.4 -500.7 162.7C-531.4 118 -528.9 59 -526.5 0L0 0Z" fill="#000d1b"></path><path d="M0 351C-38.1 344.5 -76.3 338.1 -101.7 312.9C-127.1 287.7 -139.7 243.9 -158.7 218.4C-177.7 193 -203.1 185.9 -237 172.2C-271 158.5 -313.4 138.3 -333.8 108.5C-354.2 78.7 -352.6 39.3 -351 0L0 0Z" fill="#000b16"></path><path d="M0 175.5C-19.1 172.3 -38.1 169 -50.8 156.4C-63.5 143.9 -69.8 121.9 -79.4 109.2C-88.9 96.5 -101.6 92.9 -118.5 86.1C-135.5 79.3 -156.7 69.1 -166.9 54.2C-177.1 39.3 -176.3 19.7 -175.5 0L0 0Z" fill="#000913"></path></g><g transform="translate(0, 1080)"><path d="M0 -702C74.2 -676.8 148.4 -651.7 194.7 -599.2C241 -546.6 259.5 -466.7 315.1 -433.6C370.6 -400.5 463.4 -414.2 531.5 -386.2C599.7 -358.1 643.3 -288.3 667.6 -216.9C692 -145.6 697 -72.8 702 0L0 0Z" fill="#001020"></path><path d="M0 -526.5C55.6 -507.6 111.3 -488.8 146 -449.4C180.8 -410 194.6 -350 236.3 -325.2C278 -300.4 347.5 -310.7 398.6 -289.6C449.8 -268.6 482.5 -216.2 500.7 -162.7C519 -109.2 522.7 -54.6 526.5 0L0 0Z" fill="#000d1b"></path><path d="M0 -351C37.1 -338.4 74.2 -325.8 97.3 -299.6C120.5 -273.3 129.7 -233.4 157.5 -216.8C185.3 -200.3 231.7 -207.1 265.8 -193.1C299.8 -179.1 321.7 -144.1 333.8 -108.5C346 -72.8 348.5 -36.4 351 0L0 0Z" fill="#000b16"></path><path d="M0 -175.5C18.5 -169.2 37.1 -162.9 48.7 -149.8C60.3 -136.7 64.9 -116.7 78.8 -108.4C92.7 -100.1 115.8 -103.6 132.9 -96.5C149.9 -89.5 160.8 -72.1 166.9 -54.2C173 -36.4 174.2 -18.2 175.5 0L0 0Z" fill="#000913"></path></g></svg>