<svg id="visual" viewBox="0 0 1920 1080" width="1920" height="1080" xmlns="http://www.w3.org/2000/svg" xmlns:xlink="http://www.w3.org/1999/xlink" version="1.1"><rect x="0" y="0" width="1920" height="1080" fill="#002233"></rect><path d="M1054 1080L1048.2 1035C1042.3 990 1030.7 900 997.2 810C963.7 720 908.3 630 926.3 540C944.3 450 1035.7 360 1081.3 270C1127 180 1127 90 1127 45L1127 0L1920 0L1920 45C1920 90 1920 180 1920 270C1920 360 1920 450 1920 540C1920 630 1920 720 1920 810C1920 900 1920 990 1920 1035L1920 1080Z" fill="#FFFFFF" stroke-linecap="round" stroke-linejoin="miter"></path></svg>