<!--?xml version="1.0" standalone="no"?-->
              <svg id="sw-js-blob-svg" viewBox="0 0 100 100" xmlns="http://www.w3.org/2000/svg" version="1.1">
                    <defs> 
                        <linearGradient id="sw-gradient" x1="0" x2="1" y1="1" y2="0">
                            <stop id="stop1" stop-color="rgba(57, 169, 0, 1)" offset="0%"></stop>
                            <stop id="stop2" stop-color="rgba(143.996, 220.919, 104.847, 0.85)" offset="100%"></stop>
                        </linearGradient>
                    </defs>
                <path fill="url(#sw-gradient)" d="M26.7,-34.1C32.6,-26.9,34.1,-16.6,35.9,-6.3C37.7,3.9,39.8,14.1,36.7,22.8C33.6,31.5,25.1,38.7,16.4,39.3C7.7,40,-1.3,34.1,-9.9,29.9C-18.6,25.6,-26.9,23,-32.8,16.9C-38.8,10.8,-42.4,1.4,-41.5,-8C-40.6,-17.3,-35.3,-26.5,-27.6,-33.4C-20,-40.3,-10,-44.9,0.2,-45.2C10.4,-45.4,20.8,-41.3,26.7,-34.1Z" width="100%" height="100%" transform="translate(50 50)" stroke-width="0" style="transition: all 0.3s ease 0s;" stroke="url(#sw-gradient)"></path>
              </svg>